<?xml version="1.0" encoding="UTF-8"?>
<!DOCTYPE svg PUBLIC "-//W3C//DTD SVG 1.1//EN" "http://www.w3.org/Graphics/SVG/1.1/DTD/svg11.dtd">
<!-- Creator: CorelDRAW 2018 (64-Bit) -->
<svg xmlns="http://www.w3.org/2000/svg" xml:space="preserve" width="2.08335in" height="2.08327in" version="1.1" style="shape-rendering:geometricPrecision; text-rendering:geometricPrecision; image-rendering:optimizeQuality; fill-rule:evenodd; clip-rule:evenodd"
viewBox="0 0 1070.07 1070.03"
 xmlns:xlink="http://www.w3.org/1999/xlink">
 <defs>
  <style type="text/css">
   <![CDATA[
    .fil0 {fill:#D0B460}
   ]]>
  </style>
 </defs>
 <g id="Layer_x0020_1">
  <metadata id="CorelCorpID_0Corel-Layer"/>
  <g id="_1907714757536">
   <path class="fil0" d="M1013.44 972.83c-15.6,-25.83 -15.6,-58.14 0,-83.97 110.43,-179.54 54.43,-414.63 -125.11,-525.06 -39.69,-24.43 -83.54,-41.38 -129.34,-50 -14.76,-80 -54.71,-153.21 -113.99,-208.9 -78.34,-74.96 -185.09,-112.67 -293.13,-103.56 -210.15,16.46 -367.15,200.15 -350.69,410.3 4.76,60.89 24.07,119.74 56.31,171.63 15.6,25.83 15.6,58.14 0,83.97l-35.37 59.03c-7.18,12.08 -3.18,27.71 8.91,34.86 3.92,2.32 8.4,3.56 12.98,3.56l270.73 0c39.95,178.65 198.62,305.57 381.68,305.34l329.77 0c14.05,0 25.44,-11.4 25.44,-25.44 0,-4.55 -1.22,-9.06 -3.56,-12.98l-34.63 -58.78zm-924.93 -259.03l12.21 -20.61c25.39,-42.01 25.39,-94.63 0,-136.64 -95.75,-155.6 -47.23,-359.34 108.35,-455.09 155.57,-95.75 359.34,-47.25 455.09,108.34 32.93,53.49 49.92,115.24 49.03,178.04 -6.08,183.1 -157.25,327.86 -340.45,325.95l-284.22 -0zm608.9 305.34c-155.49,0.89 -291.75,-103.92 -330.79,-254.45l6.11 0c210.94,1.76 384.73,-165.21 391.34,-376.08 0,-7.38 0,-14.76 0,-22.14 177.86,41.75 288.19,219.77 246.44,397.63 -8.12,34.55 -21.73,67.56 -40.33,97.79 -25.39,42.01 -25.39,94.63 0,136.64l12.21 20.61 -284.98 0 0 0z"/>
   <path class="fil0" d="M410.65 321.69l0 0c0,25.44 -23.92,41.73 -85.24,44.28l-2.54 2.54 11.2 78.88 50.89 0 5.34 -29.77c51.91,-9.16 93.89,-34.61 93.89,-96.95l0 0c0,-64.63 -47.58,-101.78 -117.81,-101.78 -45.57,-1.09 -89.24,18.22 -119.08,52.67l44.78 49.11c18.6,-20.89 45.06,-33.08 73.03,-33.59 29,0 45.54,12.72 45.54,34.61z"/>
   <rect class="fil0" x="318.03" y="485.97" width="78.88" height="77.86"/>
  </g>
 </g>
</svg>
