<?xml version="1.0" encoding="UTF-8"?>
<!DOCTYPE svg PUBLIC "-//W3C//DTD SVG 1.1//EN" "http://www.w3.org/Graphics/SVG/1.1/DTD/svg11.dtd">
<!-- Creator: CorelDRAW 2018 (64-Bit) -->
<svg xmlns="http://www.w3.org/2000/svg" xml:space="preserve" width="0.208476in" height="0.191453in" version="1.1" style="shape-rendering:geometricPrecision; text-rendering:geometricPrecision; image-rendering:optimizeQuality; fill-rule:evenodd; clip-rule:evenodd"
viewBox="0 0 79.09 72.64"
 xmlns:xlink="http://www.w3.org/1999/xlink">
 <defs>
  <style type="text/css">
   <![CDATA[
    .fil0 {fill:#D0B460}
    .fil1 {fill:#D0B460;fill-rule:nonzero}
   ]]>
  </style>
 </defs>
 <g id="Layer_x0020_1">
  <metadata id="CorelCorpID_0Corel-Layer"/>
  <g id="_1907698394784">
   <g>
    <path class="fil0" d="M18.6 35.56c4.4,-4.4 10.47,-7.12 17.16,-7.12 0.24,0 0.47,0.01 0.71,0.01 -0.72,-1.08 -1.54,-2.08 -2.46,-2.99 -3.61,-3.61 -8.59,-5.84 -14.08,-5.84 -5.49,0 -10.47,2.23 -14.08,5.84 -3.61,3.61 -5.84,8.59 -5.84,14.08 0,5.49 2.23,10.47 5.84,14.08 1.77,1.77 3.86,3.2 6.19,4.22 -0.36,-1.66 -0.55,-3.37 -0.55,-5.13 0,-6.69 2.72,-12.76 7.12,-17.16z"/>
    <path class="fil1" d="M35.76 32.79c5.49,0 10.47,2.23 14.08,5.84 3.61,3.61 5.84,8.59 5.84,14.08 0,5.49 -2.23,10.47 -5.84,14.08 -3.61,3.61 -8.59,5.84 -14.08,5.84 -5.49,0 -10.47,-2.23 -14.08,-5.84 -3.61,-3.61 -5.84,-8.59 -5.84,-14.08 0,-5.49 2.23,-10.47 5.84,-14.08 3.61,-3.61 8.59,-5.84 14.08,-5.84zm9.89 10.03c-2.52,-2.52 -6.02,-4.09 -9.89,-4.09 -3.86,0 -7.37,1.56 -9.89,4.09 -2.52,2.52 -4.09,6.02 -4.09,9.89 0,3.86 1.56,7.36 4.09,9.89 2.52,2.52 6.02,4.09 9.89,4.09 3.86,0 7.36,-1.56 9.89,-4.09 2.52,-2.52 4.09,-6.02 4.09,-9.89 0,-3.86 -1.57,-7.36 -4.09,-9.89z"/>
   </g>
   <path class="fil0" d="M78.91 32.57c-0.22,-0.27 -0.57,-0.38 -0.89,-0.28l-4.6 1.33c-1.51,-14.71 -13.23,-26.43 -27.93,-27.94l1.33 -4.6c0.09,-0.33 -0.02,-0.68 -0.29,-0.89 -0.27,-0.21 -0.63,-0.25 -0.93,-0.08l-14.38 7.85c-0.27,0.15 -0.44,0.43 -0.44,0.74 0,0.31 0.17,0.59 0.44,0.74l14.38 7.85c0.3,0.17 0.67,0.13 0.94,-0.09 0.27,-0.21 0.38,-0.56 0.28,-0.89l-1 -3.48c10.56,1.55 18.91,9.9 20.46,20.46l-3.48 -1c-0.33,-0.1 -0.68,0.01 -0.89,0.28 -0.21,0.27 -0.25,0.64 -0.08,0.94l7.85 14.38c0.15,0.27 0.43,0.44 0.74,0.44 0.31,0 0.59,-0.17 0.74,-0.44l7.85 -14.39c0.16,-0.3 0.13,-0.67 -0.08,-0.93z"/>
  </g>
 </g>
</svg>
