<?xml version="1.0" encoding="UTF-8" standalone="no"?>
<!-- Created with Inkscape (http://www.inkscape.org/) -->

<svg
   xmlns:dc="http://purl.org/dc/elements/1.1/"
   xmlns:cc="http://creativecommons.org/ns#"
   xmlns:rdf="http://www.w3.org/1999/02/22-rdf-syntax-ns#"
   xmlns:svg="http://www.w3.org/2000/svg"
   xmlns="http://www.w3.org/2000/svg"
   xmlns:sodipodi="http://sodipodi.sourceforge.net/DTD/sodipodi-0.dtd"
   xmlns:inkscape="http://www.inkscape.org/namespaces/inkscape"
   width="12mm"
   height="15mm"
   viewBox="0 0 42.519681 53.149602"
   id="svg4272"
   version="1.1"
   inkscape:version="0.91 r13725"
   sodipodi:docname="ico.svg">
  <defs
     id="defs4274" />
  <sodipodi:namedview
     id="base"
     pagecolor="#ffffff"
     bordercolor="#666666"
     borderopacity="1.0"
     inkscape:pageopacity="0.0"
     inkscape:pageshadow="2"
     inkscape:zoom="11.2"
     inkscape:cx="35.509482"
     inkscape:cy="25.438576"
     inkscape:document-units="px"
     inkscape:current-layer="layer1"
     showgrid="false"
     inkscape:window-width="1867"
     inkscape:window-height="1056"
     inkscape:window-x="53"
     inkscape:window-y="24"
     inkscape:window-maximized="1" />
  <metadata
     id="metadata4277">
    <rdf:RDF>
      <cc:Work
         rdf:about="">
        <dc:format>image/svg+xml</dc:format>
        <dc:type
           rdf:resource="http://purl.org/dc/dcmitype/StillImage" />
        <dc:title></dc:title>
      </cc:Work>
    </rdf:RDF>
  </metadata>
  <g
     inkscape:label="Layer 1"
     inkscape:groupmode="layer"
     id="layer1"
     transform="translate(0,-999.21264)">
    <g
       style="clip-rule:evenodd;fill-rule:evenodd;image-rendering:optimizeQuality;shape-rendering:geometricPrecision;text-rendering:geometricPrecision"
       id="_2377769175104"
       transform="translate(1.2417916,999.53647)">
      <path
         style="fill:#d0b460"
         inkscape:connector-curvature="0"
         id="path40"
         d="m 10.99,10.41 2.45,-2.06 c 0.59,0.23 1.05,0.56 1.31,0.98 0.29,0.43 0.43,0.95 0.43,1.6 l 0,8.18 c 0,0.23 0.03,0.39 0.13,0.52 0.13,0.2 0.39,0.43 0.75,0.72 l 1.08,-0.88 0.33,0.33 -2.59,2.09 -2.36,-1.54 0.65,-0.88 0,-7.33 c 0,-0.49 -0.03,-0.85 -0.1,-1.01 -0.1,-0.33 -0.26,-0.56 -0.46,-0.75 -0.16,-0.13 -0.29,-0.2 -0.39,-0.2 -0.13,0 -0.29,0.1 -0.52,0.29 -0.13,0.1 -0.26,0.2 -0.36,0.26 L 10.98,10.4 Z"
         class="fil0" />
      <path
         style="fill:#d0b460"
         inkscape:connector-curvature="0"
         id="path42"
         d="m 25.32,25.5 c 1.47,0.52 2.62,1.31 3.44,2.42 0.82,1.11 1.24,2.42 1.24,3.93 0,1.47 -0.39,2.85 -1.15,4.06 -0.75,1.21 -1.8,2.26 -3.11,3.08 -0.95,-0.23 -1.77,-0.62 -2.55,-1.24 -0.75,-0.62 -1.34,-1.37 -1.73,-2.29 -0.39,-0.92 -0.59,-1.87 -0.59,-2.85 0,-1.41 0.39,-2.78 1.21,-4.09 0.82,-1.31 1.9,-2.32 3.24,-3.01 z m -1.7,1.77 c -0.92,1.01 -1.34,2.26 -1.34,3.7 0,1.01 0.23,1.96 0.66,2.88 0.43,0.88 1.05,1.64 1.87,2.23 0.82,0.59 1.64,0.95 2.49,1.08 0.46,-0.65 0.82,-1.24 1.01,-1.8 0.2,-0.56 0.29,-1.18 0.29,-1.87 0,-0.95 -0.2,-1.83 -0.56,-2.68 -0.39,-0.85 -0.95,-1.57 -1.7,-2.16 -0.79,-0.62 -1.67,-1.05 -2.72,-1.37 z"
         class="fil0" />
      <path
         style="fill:#d0b460"
         inkscape:connector-curvature="0"
         id="path44"
         d="m 2.15,8.31 0,0 C 2.54,8.54 3.03,8.67 3.52,8.67 5.06,8.67 6.3,7.43 6.3,5.89 6.3,4.35 5.06,3.11 3.52,3.11 1.98,3.11 0.74,4.35 0.74,5.89 0.74,6.28 0.84,6.68 0.97,7 0.77,8.11 -5.48,46.34 16.45,51.02 l 0.29,-1.41 C 16.71,49.61 -2.9,47.94 2.14,8.3 Z M 3.49,4.35 C 4.31,4.35 5,5.04 5,5.86 5,6.68 4.31,7.37 3.49,7.37 2.67,7.37 1.98,6.68 1.98,5.86 2.01,5.04 2.67,4.35 3.49,4.35 Z"
         class="fil0" />
      <polygon
         style="fill:#d0b460"
         id="polygon46"
         points="6.18,2.03 6.4,3.44 20.32,1.34 34.23,3.44 34.45,2.03 20.32,0 "
         class="fil0" />
      <path
         style="fill:#d0b460"
         inkscape:connector-curvature="0"
         id="path48"
         d="m 39.69,6.97 c 0.16,-0.33 0.23,-0.72 0.23,-1.11 0,-1.54 -1.24,-2.78 -2.78,-2.78 -1.54,0 -2.78,1.24 -2.78,2.78 0,1.54 1.24,2.78 2.78,2.78 0.49,0 0.95,-0.13 1.37,-0.36 l 0,0 C 43.55,47.92 23.94,49.59 23.94,49.59 L 24.23,51 C 46.09,46.35 39.84,8.09 39.68,6.98 Z M 37.14,4.35 c 0.82,0 1.51,0.69 1.51,1.51 0,0.82 -0.69,1.51 -1.51,1.51 -0.82,0 -1.51,-0.69 -1.51,-1.51 0,-0.82 0.65,-1.51 1.51,-1.51 z"
         class="fil0" />
      <path
         style="fill:#d0b460"
         inkscape:connector-curvature="0"
         id="path50"
         d="M 37.27,28.84 35.9,28.81 c -1.57,17.12 -13.49,18.53 -13.62,18.53 -0.49,-0.52 -1.21,-0.82 -2,-0.82 -0.79,0 -1.47,0.33 -2,0.82 -0.13,0 -12.01,-1.41 -13.62,-18.53 l -1.37,0.03 c 0,0 0.59,16.79 14.24,19.74 -0.07,0.23 -0.1,0.46 -0.1,0.72 0,1.54 1.24,2.78 2.78,2.78 1.54,0 2.78,-1.24 2.78,-2.78 0,-0.26 -0.03,-0.49 -0.1,-0.72 C 36.64,45.63 37.26,28.84 37.26,28.84 Z M 21.82,49.3 c 0,0.82 -0.69,1.51 -1.51,1.51 -0.82,0 -1.51,-0.69 -1.51,-1.51 0,-0.82 0.69,-1.51 1.51,-1.51 0.82,0 1.51,0.69 1.51,1.51 z"
         class="fil0" />
      <path
         style="fill:#d0b460"
         inkscape:connector-curvature="0"
         id="path52"
         d="M 37.37,10.15 C 33.54,9.2 32.62,7.04 32.43,5.73 l -1.05,1.54 c 0,0 0,0.03 0,0.03 L 9.68,37.18 c -1.15,-2.23 -2.19,-5.7 -2,-10.77 l -3.21,0 c 0,0 -0.69,-9.79 0.1,-15.15 0,0 4.71,-1.41 4.97,-5.37 l 10.77,-1.77 7.1,1.18 0.26,-1.37 -7.36,-1.24 0,0 0,0 0,0 0,0 L 8.2,4.72 c 0,0 0.72,4.06 -4.98,5.47 0,0 -1.11,9.79 -0.1,17.67 l 3.08,0 c 0,0 -0.49,7.27 3.67,12.27 l 0.85,-1.21 c 0,0 0,0 0,0 L 32.42,9 c 1.47,1.6 3.57,2.23 3.57,2.23 0.79,5.37 0.1,15.15 0.1,15.15 l -3.21,0 c 0.36,10.77 -4.71,14.27 -4.71,14.27 l 0.75,1.15 c 6.02,-4.84 5.4,-13.98 5.4,-13.98 l 3.08,0 C 38.51,19.93 37.37,10.15 37.37,10.15 Z"
         class="fil0" />
    </g>
  </g>
</svg>
