<?xml version="1.0" encoding="UTF-8"?>
<!DOCTYPE svg PUBLIC "-//W3C//DTD SVG 1.1//EN" "http://www.w3.org/Graphics/SVG/1.1/DTD/svg11.dtd">
<!-- Creator: CorelDRAW 2018 (64-Bit) -->
<svg xmlns="http://www.w3.org/2000/svg" xml:space="preserve" width="1.8137in" height="1.8137in" version="1.1" style="shape-rendering:geometricPrecision; text-rendering:geometricPrecision; image-rendering:optimizeQuality; fill-rule:evenodd; clip-rule:evenodd"
viewBox="0 0 1813.69 1813.69"
 xmlns:xlink="http://www.w3.org/1999/xlink">
 <defs>
  <style type="text/css">
   <![CDATA[
    .fil0 {fill:white}
   ]]>
  </style>
 </defs>
 <g id="Layer_x0020_1">
  <metadata id="CorelCorpID_0Corel-Layer"/>
  <path class="fil0" d="M1813.69 906.85c0,-500.02 -406.83,-906.85 -906.84,-906.85 -500.02,0 -906.85,406.83 -906.85,906.85 0,264.11 113.57,502.16 294.35,668.03l-0.86 0.76 29.42 24.8c1.91,1.61 3.99,2.93 5.9,4.52 15.63,12.96 31.82,25.26 48.31,37.17 5.34,3.86 10.69,7.72 16.13,11.48 17.61,12.13 35.68,23.65 54.15,34.56 4.02,2.37 8.08,4.68 12.14,6.99 20.21,11.51 40.85,22.36 61.99,32.31 1.55,0.73 3.13,1.39 4.69,2.11 68.89,32.02 142.42,55.54 219.32,69.42 2.01,0.36 4.02,0.72 6.07,1.09 23.87,4.12 48.01,7.42 72.45,9.63 2.96,0.26 5.93,0.43 8.93,0.69 24.34,2.01 48.94,3.3 73.87,3.3 24.7,0 49.07,-1.28 73.27,-3.23 3.07,-0.26 6.13,-0.43 9.2,-0.69 24.24,-2.21 48.18,-5.41 71.82,-9.46 2.04,-0.36 4.12,-0.73 6.17,-1.12 75.75,-13.59 148.23,-36.57 216.23,-67.77 2.5,-1.15 5.04,-2.24 7.55,-3.43 20.35,-9.56 40.23,-19.89 59.72,-30.87 4.85,-2.74 9.66,-5.51 14.48,-8.34 17.74,-10.45 35.18,-21.37 52.13,-32.98 6.1,-4.15 12.07,-8.54 18.1,-12.89 14.48,-10.42 28.69,-21.17 42.51,-32.41 3.07,-2.48 6.37,-4.62 9.37,-7.16l30.17 -25.19 -0.89 -0.76c182.36,-165.94 297.02,-405.08 297.02,-670.54zm-1747.74 0c0,-463.68 377.22,-840.9 840.9,-840.9 463.68,0 840.89,377.22 840.89,840.9 0,249.86 -109.65,474.5 -283.23,628.62 -9.7,-6.69 -19.46,-12.7 -29.45,-17.71l-279.21 -139.59c-25.06,-12.53 -40.63,-37.72 -40.63,-65.72l0 -97.51c6.46,-7.98 13.29,-17.02 20.35,-26.94 36.14,-51.05 65.13,-107.83 86.26,-168.94 41.78,-19.85 68.76,-61.47 68.76,-108.46l0 -116.9c0,-28.59 -10.49,-56.32 -29.25,-78.12l0 -153.9c1.71,-17.15 7.78,-113.7 -62.09,-193.37 -60.78,-69.38 -159.15,-104.5 -292.4,-104.5 -133.26,0 -231.63,35.12 -292.4,104.47 -69.88,79.67 -63.81,176.29 -62.09,193.37l0 153.9c-18.73,21.8 -29.25,49.53 -29.25,78.12l0 116.9c0,36.31 16.29,70.17 44.19,93.03 26.71,104.63 81.68,183.84 102,210.68l0 95.43c0,26.91 -14.67,51.64 -38.32,64.57l-260.74 142.22c-8.31,4.52 -16.55,9.8 -24.8,15.7 -171.44,-154.07 -279.48,-377.31 -279.48,-625.36z"/>
 </g>
</svg>
