<?xml version="1.0" encoding="UTF-8"?>
<!DOCTYPE svg PUBLIC "-//W3C//DTD SVG 1.1//EN" "http://www.w3.org/Graphics/SVG/1.1/DTD/svg11.dtd">
<!-- Creator: CorelDRAW 2018 (64-Bit) -->
<svg xmlns="http://www.w3.org/2000/svg" xml:space="preserve" width="0.82339in" height="0.908567in" version="1.1" style="shape-rendering:geometricPrecision; text-rendering:geometricPrecision; image-rendering:optimizeQuality; fill-rule:evenodd; clip-rule:evenodd"
viewBox="0 0 105.11 115.99"
 xmlns:xlink="http://www.w3.org/1999/xlink">
 <defs>
  <style type="text/css">
   <![CDATA[
    .fil0 {fill:white}
   ]]>
  </style>
 </defs>
 <g id="Layer_x0020_1">
  <metadata id="CorelCorpID_0Corel-Layer"/>
  <g id="_1907693872688">
   <path class="fil0" d="M93.79 29.9l-14.32 0c-1.25,0 -2.27,1.01 -2.27,2.27 0,1.25 1.01,2.27 2.27,2.27l14.32 0c3.75,0 6.8,3.05 6.8,6.8l0 11.35c-2.1,-1.71 -4.79,-2.74 -7.7,-2.74l-80.65 0c-4.25,0 -7.7,-3.46 -7.7,-7.7 0,-4.25 3.46,-7.7 7.7,-7.7l13.47 0c1.25,0 2.27,-1.01 2.27,-2.27 0,-1.25 -1.01,-2.27 -2.27,-2.27l-13.47 0c-6.75,0 -12.23,5.49 -12.23,12.23 0,0.5 0,61.62 0,61.62 0,6.75 5.49,12.23 12.23,12.23l81.55 0c6.25,0 11.33,-5.08 11.33,-11.33l0 -63.43c0,-6.25 -5.08,-11.33 -11.33,-11.33zm6.8 60.5l-24.57 0c-4.25,0 -7.7,-3.45 -7.7,-7.7 0,-4.25 3.46,-7.7 7.7,-7.7l24.57 0 0 15.4zm0 -19.94l-24.57 0c-6.74,0 -12.23,5.49 -12.23,12.23 0,6.75 5.49,12.23 12.23,12.23l24.57 0 0 6.55 -12.32 0c-1.25,0 -2.27,1.01 -2.27,2.27 0,1.25 1.01,2.27 2.27,2.27l12.18 0c-0.63,3.1 -3.38,5.44 -6.66,5.44l-81.55 0c-4.25,0 -7.7,-3.46 -7.7,-7.7l0 -9.33 3.29 0 8.17 8.17c0.43,0.42 1,0.66 1.6,0.66l16.01 0c0.94,2.64 3.45,4.53 6.41,4.53 3.75,0 6.8,-3.05 6.8,-6.8 0,-3.75 -3.05,-6.8 -6.8,-6.8 -2.95,0 -5.47,1.89 -6.41,4.53l-15.07 0 -8.17 -8.17c-0.42,-0.42 -1,-0.66 -1.6,-0.66l-4.23 0 0 -4.93 8.49 0c0.89,2.72 3.45,4.7 6.46,4.7 3.75,0 6.8,-3.05 6.8,-6.8 0,-3.75 -3.05,-6.8 -6.8,-6.8 -2.89,0 -5.36,1.81 -6.34,4.36l-8.61 0 0 -4.36 4.23 0c0.6,0 1.18,-0.24 1.6,-0.66l8.17 -8.17 33.31 0c0.94,2.64 3.45,4.53 6.41,4.53 3.75,0 6.8,-3.05 6.8,-6.8 0,-3.75 -3.05,-6.8 -6.8,-6.8 -2.95,0 -5.47,1.89 -6.41,4.53l-34.25 0c-0.6,0 -1.18,0.24 -1.6,0.66l-8.17 8.17 -3.29 0 0 -19.92c2.1,1.71 4.79,2.74 7.7,2.74l80.65 0c4.25,0 7.7,3.45 7.7,7.7l0 8.4zm-62.84 30.53c0,-1.25 1.02,-2.27 2.27,-2.27 1.25,0 2.27,1.02 2.27,2.27 0,1.25 -1.02,2.27 -2.27,2.27 -1.25,0 -2.27,-1.02 -2.27,-2.27zm-20.53 -18.12c0,-1.25 1.02,-2.27 2.27,-2.27 1.25,0 2.27,1.02 2.27,2.27 0,1.25 -1.02,2.27 -2.27,2.27 -1.25,0 -2.27,-1.02 -2.27,-2.27zm38.77 -17.9c0,-1.25 1.02,-2.27 2.27,-2.27 1.25,0 2.27,1.02 2.27,2.27 0,1.25 -1.02,2.27 -2.27,2.27 -1.25,0 -2.27,-1.02 -2.27,-2.27z"/>
   <path class="fil0" d="M77.87 81.1c-0.42,-0.42 -1.01,-0.66 -1.6,-0.66 -0.6,0 -1.18,0.24 -1.6,0.66 -0.42,0.42 -0.66,1.01 -0.66,1.6 0,0.6 0.24,1.18 0.66,1.6 0.42,0.42 1.01,0.66 1.6,0.66 0.6,0 1.18,-0.24 1.6,-0.66 0.42,-0.42 0.66,-1.01 0.66,-1.6 0,-0.6 -0.24,-1.18 -0.66,-1.6z"/>
   <path class="fil0" d="M52.58 0c-1.25,0 -2.27,1.01 -2.27,2.27l0 3.62c0,1.25 1.01,2.27 2.27,2.27 1.25,0 2.27,-1.01 2.27,-2.27l0 -3.62c0,-1.25 -1.01,-2.27 -2.27,-2.27z"/>
   <path class="fil0" d="M31.97 0c-1.25,0 -2.27,1.01 -2.27,2.27l0 8.31c0,1.25 1.01,2.27 2.27,2.27 1.25,0 2.27,-1.01 2.27,-2.27l0 -8.31c0,-1.25 -1.01,-2.27 -2.27,-2.27z"/>
   <path class="fil0" d="M70.89 0c-1.25,0 -2.27,1.01 -2.27,2.27l0 10.72c0,1.25 1.01,2.27 2.27,2.27 1.25,0 2.27,-1.01 2.27,-2.27l0 -10.72c0,-1.25 -1.01,-2.27 -2.27,-2.27z"/>
   <path class="fil0" d="M33.57 16.52c-0.42,-0.42 -1.01,-0.66 -1.6,-0.66 -0.6,0 -1.18,0.24 -1.6,0.66 -0.42,0.42 -0.66,1.01 -0.66,1.6 0,0.6 0.24,1.18 0.66,1.6 0.42,0.42 1.01,0.66 1.6,0.66 0.6,0 1.18,-0.24 1.6,-0.66 0.42,-0.42 0.66,-1.01 0.66,-1.6 0,-0.6 -0.24,-1.18 -0.66,-1.6z"/>
   <path class="fil0" d="M84.5 39.87l-12.61 0c0.83,-2.25 1.26,-4.65 1.26,-7.07 0,-11.34 -9.23,-20.57 -20.57,-20.57 -11.34,0 -20.57,9.23 -20.57,20.57 0,2.42 0.43,4.82 1.26,7.07l-12.63 0c-1.25,0 -2.27,1.01 -2.27,2.27 0,1.25 1.01,2.27 2.27,2.27l16.2 0 31.48 0 16.18 0c1.25,0 2.27,-1.01 2.27,-2.27 0,-1.25 -1.01,-2.27 -2.27,-2.27zm-17.52 0l-7.71 0c0.35,-0.79 0.54,-1.66 0.54,-2.57 0,-3.73 -3.24,-6.77 -7.23,-6.77 -1.49,0 -2.7,-1 -2.7,-2.24 0,-1.23 1.21,-2.24 2.7,-2.24 1.49,0 2.7,1 2.7,2.24 0,1.25 1.01,2.27 2.27,2.27 1.25,0 2.27,-1.01 2.27,-2.27 0,-2.99 -2.08,-5.54 -4.96,-6.43 -0.03,-1.23 -1.03,-2.21 -2.26,-2.21 -1.23,0 -2.24,0.99 -2.26,2.21 -2.88,0.89 -4.96,3.43 -4.96,6.43 0,3.73 3.24,6.77 7.23,6.77 1.49,0 2.7,1 2.7,2.24 0,1.23 -1.21,2.24 -2.7,2.24 -1.49,0 -2.7,-1 -2.7,-2.24 0,-1.25 -1.01,-2.27 -2.27,-2.27 -1.25,0 -2.27,1.01 -2.27,2.27 0,0.91 0.19,1.78 0.54,2.57l-7.71 0c-1.08,-2.19 -1.64,-4.61 -1.64,-7.07 0,-8.84 7.19,-16.04 16.04,-16.04 8.84,0 16.04,7.19 16.04,16.04 0,2.46 -0.56,4.88 -1.64,7.07z"/>
   <path class="fil0" d="M80.46 102.15c-0.42,-0.42 -1.01,-0.66 -1.6,-0.66 -0.6,0 -1.18,0.24 -1.6,0.66 -0.42,0.42 -0.66,1.01 -0.66,1.6 0,0.6 0.24,1.18 0.66,1.6 0.42,0.42 1.01,0.66 1.6,0.66 0.6,0 1.18,-0.24 1.6,-0.66 0.42,-0.42 0.66,-1.01 0.66,-1.6 0,-0.6 -0.24,-1.18 -0.66,-1.6z"/>
   <path class="fil0" d="M68.78 101.49l-9.02 0 0 -21.04c0,-1.25 -1.01,-2.27 -2.27,-2.27l-7.3 0c-0.93,-2.64 -3.45,-4.53 -6.41,-4.53 -3.75,0 -6.8,3.05 -6.8,6.8 0,3.75 3.05,6.8 6.8,6.8 2.95,0 5.47,-1.89 6.41,-4.53l5.03 0 0 21.04c0,1.25 1.01,2.27 2.27,2.27l11.29 0c1.25,0 2.27,-1.01 2.27,-2.27 0,-1.25 -1.01,-2.27 -2.27,-2.27zm-24.99 -18.77c-1.25,0 -2.27,-1.02 -2.27,-2.27 0,-1.25 1.02,-2.27 2.27,-2.27 1.25,0 2.27,1.02 2.27,2.27 0,1.25 -1.02,2.27 -2.27,2.27z"/>
  </g>
 </g>
</svg>
